<svg xmlns="http://www.w3.org/2000/svg" viewBox="0 0 64 64" fill="none">
  <circle cx="32" cy="32" r="32" fill="#00B388"/>
  <path d="M44.5 38.7c-1.4-1.4-3.1-2.1-4.9-2.1-1.8 0-3.5.7-4.9 2.1l-2.3 2.3c-.2.2-.5.3-.8.2-.3-.1-1.9-.8-4.1-3-2.2-2.2-2.9-3.8-3-4.1-.1-.3 0-.6.2-.8l2.3-2.3c2.7-2.7 2.7-7.1 0-9.8l-2.1-2.1c-1.4-1.4-3.1-2.1-4.9-2.1-1.8 0-3.5.7-4.9 2.1l-1.5 1.5c-2.4 2.4-3.4 5.9-2.6 9.5 1 4.5 4.1 9.3 8.8 14 4.7 4.7 9.5 7.8 14 8.8.8.2 1.7.3 2.5.3 2.7 0 5.2-1 7-2.9l1.5-1.5c2.7-2.7 2.7-7.1 0-9.8l-2.3-2.3zm.2 9.9l-1.5 1.5c-1.4 1.4-3.5 2-5.7 1.5-3.9-.8-8.3-3.7-12.6-8-4.3-4.3-7.2-8.7-8-12.6-.5-2.2.1-4.3 1.5-5.7l1.5-1.5c.8-.8 1.8-1.2 2.8-1.2s2 .4 2.8 1.2l2.1 2.1c1.5 1.5 1.5 4 0 5.5l-2.3 2.3c-.9.9-1.2 2.2-.8 3.4.4 1.2 1.5 3.5 4.2 6.2 2.7 2.7 5 3.8 6.2 4.2 1.2.4 2.5.1 3.4-.8l2.3-2.3c1.5-1.5 4-1.5 5.5 0l2.1 2.1c1.7 1.6 1.7 4.1.5 5.6z" fill="#fff"/>
</svg>
